<svg width="64" height="64" viewBox="0 0 64 64" fill="none" xmlns="http://www.w3.org/2000/svg" aria-hidden="true">
<defs><linearGradient id="g" x1="8" y1="8" x2="56" y2="56" gradientUnits="userSpaceOnUse"><stop stop-color="#2563EB"/><stop offset="1" stop-color="#22D3EE"/></linearGradient></defs>
<rect x="3" y="3" width="58" height="58" rx="18" fill="url(#g)" opacity=".10"/>
<g stroke="url(#g)" stroke-width="3.4" stroke-linecap="round" stroke-linejoin="round">
<path d="M25 12c-7 0-12 5-12 12 0 3 1 5 3 7-3 2-5 6-5 10 0 7 6 12 13 12h16c7 0 13-5 13-12 0-4-2-8-5-10 2-2 3-4 3-7 0-7-5-12-12-12"/><path d="M25 12v40M39 12v40M20 27h24M20 39h24"/><circle cx="20" cy="27" r="2"/><circle cx="44" cy="39" r="2"/>
</g>
</svg>
