<svg width="64" height="64" viewBox="0 0 64 64" fill="none" xmlns="http://www.w3.org/2000/svg" aria-hidden="true">
<defs><linearGradient id="g" x1="8" y1="8" x2="56" y2="56" gradientUnits="userSpaceOnUse"><stop stop-color="#2563EB"/><stop offset="1" stop-color="#22D3EE"/></linearGradient></defs>
<rect x="3" y="3" width="58" height="58" rx="18" fill="url(#g)" opacity=".10"/>
<g stroke="url(#g)" stroke-width="3.4" stroke-linecap="round" stroke-linejoin="round">
<path d="M20 19a7 7 0 1 0 0 14 7 7 0 0 0 0-14ZM44 31a7 7 0 1 0 0 14 7 7 0 0 0 0-14Z"/><path d="M26 29l12 7M38 40l-12 8M20 47a7 7 0 1 0 0 14 7 7 0 0 0 0-14Z"/>
</g>
</svg>
